<svg id="Morgan-Wallen-Logo" xmlns="http://www.w3.org/2000/svg" xmlns:xlink="http://www.w3.org/1999/xlink" width="165.345" height="85.05" viewBox="0 0 165.345 85.05">
  <defs>
    <clipPath id="clip-path">
      <rect id="Rectangle_1" data-name="Rectangle 1" width="165.345" height="85.05" fill="#f6e7c2"/>
    </clipPath>
  </defs>
  <g id="Group_1" data-name="Group 1" clip-path="url(#clip-path)">
    <path id="Path_1" data-name="Path 1" d="M30.482,80.273l-2.829,1.1a1.3,1.3,0,0,1-1.906-.9L19.876,64.228l-.722,9.425A1.409,1.409,0,0,1,18.2,74.96a1.289,1.289,0,0,1-1.528-.34l-6.514-6.6,5.872,16.25a1.371,1.371,0,0,1-.865,1.979l-2.829,1.1a1.289,1.289,0,0,1-1.886-.906L.143,57.92a1.362,1.362,0,0,1,.847-1.972l3.329-1.3A1.35,1.35,0,0,1,5.872,55l8.081,8.205L14.858,51.5a1.409,1.409,0,0,1,.948-1.327l3.329-1.3a1.3,1.3,0,0,1,1.906.9L31.347,78.294a1.371,1.371,0,0,1-.865,1.979" transform="translate(0 -39.216)" fill="#f6e7c2"/>
    <path id="Path_2" data-name="Path 2" d="M182.946,49.869l-6.663,1.424a5.577,5.577,0,0,1-4.443-.925,5.874,5.874,0,0,1-2.588-3.85l-4.115-20.785a6.082,6.082,0,0,1,.925-4.6,5.736,5.736,0,0,1,3.717-2.69l6.644-1.419a5.623,5.623,0,0,1,4.457.944,5.894,5.894,0,0,1,2.622,3.864l4.107,20.743a6.038,6.038,0,0,1-.943,4.615,5.792,5.792,0,0,1-3.719,2.679m-1.2-6.064-4.1-20.723-6.664,1.423,4.1,20.723Z" transform="translate(-132.807 -13.598)" fill="#f6e7c2"/>
    <path id="Path_3" data-name="Path 3" d="M327.214,33.189l-3.222.193a1.349,1.349,0,0,1-1.409-.9l-5.422-12.378-1.765.105.672,12.106a1.341,1.341,0,0,1-1.393,1.623l-3.016.18q-1.477.088-1.562-1.446L308.411,2.26A1.34,1.34,0,0,1,309.8.637L320.289.01a5.688,5.688,0,0,1,4.289,1.614,5.991,5.991,0,0,1,2.067,4.228l.412,7.417a5.916,5.916,0,0,1-.972,3.629,6.438,6.438,0,0,1-2.748,2.431l5.137,11.689a1.506,1.506,0,0,1-.064,1.436,1.426,1.426,0,0,1-1.195.734m-6.128-19.542-.413-7.459-6.033.361.414,7.46Z" transform="translate(-248.21 0.001)" fill="#f6e7c2"/>
    <path id="Path_4" data-name="Path 4" d="M458.545,35.524l-6.41-.577a5.7,5.7,0,0,1-3.994-2.2,6,6,0,0,1-1.433-4.457l1.763-21.12a5.971,5.971,0,0,1,2.172-4.144,5.645,5.645,0,0,1,4.322-1.486l6.368.573a5.721,5.721,0,0,1,4.012,2.236,6.048,6.048,0,0,1,1.453,4.47l-.089,1.063a1.306,1.306,0,0,1-1.58,1.379l-3.01-.271a1.334,1.334,0,0,1-1.348-1.643l.089-1.063L454.43,7.7,452.671,28.78l6.43.579.621-7.444-2.6-.234a1.335,1.335,0,0,1-1.326-1.662l.261-3.126q.128-1.531,1.582-1.4l7.084.638a1.335,1.335,0,0,1,1.326,1.662l-1.01,12.1a5.947,5.947,0,0,1-2.174,4.165,5.675,5.675,0,0,1-4.32,1.464" transform="translate(-359.499 -1.218)" fill="#f6e7c2"/>
    <path id="Path_5" data-name="Path 5" d="M580.745,57.293l.222-6.352-6.08-1.494-2.542,5.781a1.337,1.337,0,0,1-1.695.856l-2.98-.732a1.416,1.416,0,0,1-1-.816,1.462,1.462,0,0,1-.016-1.32l12.472-28.241a1.311,1.311,0,0,1,1.674-.861l5.8,1.425a1.392,1.392,0,0,1,1.146,1.554L586.7,58.141a1.52,1.52,0,0,1-.584,1.173,1.378,1.378,0,0,1-1.223.27l-3-.737a1.376,1.376,0,0,1-1.146-1.554m.434-12.661.344-10.226-4.1,9.3Z" transform="translate(-455.933 -19.362)" fill="#f6e7c2"/>
    <path id="Path_6" data-name="Path 6" d="M710.727,95.34l.3-17.771-5.794,14.861a1.3,1.3,0,0,1-1.927.848l-2.762-1.162a1.373,1.373,0,0,1-.816-2l11.009-28.236a1.3,1.3,0,0,1,1.927-.848l3.619,1.522A1.444,1.444,0,0,1,717.2,64l-.287,17.8,5.8-14.88a1.3,1.3,0,0,1,1.927-.848l2.743,1.154a1.373,1.373,0,0,1,.816,2l-11,28.217a1.277,1.277,0,0,1-1.9.836l-3.627-1.5a1.4,1.4,0,0,1-.948-1.436" transform="translate(-563.02 -48.983)" fill="#f6e7c2"/>
    <path id="Path_7" data-name="Path 7" d="M145.343,265.705,140.5,296.191a1.327,1.327,0,0,1-1.412,1.26h-3.57a1.3,1.3,0,0,1-1.412-1.217l-2.521-13.278-2.521,13.278a1.328,1.328,0,0,1-1.412,1.217h-3.57a1.322,1.322,0,0,1-1.432-1.26l-4.8-30.485a1.486,1.486,0,0,1,.323-1.238,1.33,1.33,0,0,1,1.109-.555h3.025a1.323,1.323,0,0,1,1.432,1.3l2.219,15.841,2.965-15.9a1.329,1.329,0,0,1,1.432-1.238h2.481a1.335,1.335,0,0,1,1.412,1.238l2.945,15.926,2.219-15.862a1.309,1.309,0,0,1,1.432-1.3h3.066a1.4,1.4,0,0,1,1.109.555,1.633,1.633,0,0,1,.323,1.238" transform="translate(-94.829 -212.4)" fill="#f6e7c2"/>
    <path id="Path_8" data-name="Path 8" d="M265.409,296.211l-1.17-6.233h-6.131l-1.17,6.233a1.345,1.345,0,0,1-1.432,1.238H252.5a1.349,1.349,0,0,1-1.129-.555,1.476,1.476,0,0,1-.3-1.281l5.768-30.464a1.319,1.319,0,0,1,1.412-1.238H264.1a1.345,1.345,0,0,1,1.432,1.238l5.748,30.464a1.568,1.568,0,0,1-.3,1.281,1.366,1.366,0,0,1-1.109.555h-3.025a1.33,1.33,0,0,1-1.432-1.238m-2.34-12.425-1.9-10.034-1.9,10.034Z" transform="translate(-202.036 -212.399)" fill="#f6e7c2"/>
    <path id="Path_9" data-name="Path 9" d="M380.555,297.449h-7.483a5.249,5.249,0,0,1-3.943-1.729,5.825,5.825,0,0,1-1.644-4.163V265.448q0-1.537,1.452-1.537H371.9q1.452,0,1.452,1.537v25.81h7.2q1.432,0,1.432,1.537v3.117q0,1.537-1.432,1.537" transform="translate(-295.757 -212.399)" fill="#f6e7c2"/>
    <path id="Path_10" data-name="Path 10" d="M466.967,297.449h-7.483a5.249,5.249,0,0,1-3.943-1.729,5.825,5.825,0,0,1-1.644-4.163V265.448q0-1.537,1.452-1.537h2.965q1.452,0,1.452,1.537v25.81h7.2q1.432,0,1.432,1.537v3.117q0,1.537-1.432,1.537" transform="translate(-365.302 -212.399)" fill="#f6e7c2"/>
    <path id="Path_11" data-name="Path 11" d="M556.476,297.449h-8.249a5.217,5.217,0,0,1-3.933-1.729,5.846,5.846,0,0,1-1.634-4.163V265.448q0-1.537,1.452-1.537h12.243q1.452,0,1.452,1.537v3.138q0,1.516-1.452,1.516h-7.846v7.472h6.555q1.452,0,1.452,1.537v3.138q0,1.537-1.452,1.537h-6.555v7.472h7.967q1.453,0,1.452,1.537v3.117q0,1.537-1.452,1.537" transform="translate(-436.74 -212.399)" fill="#f6e7c2"/>
    <path id="Path_12" data-name="Path 12" d="M647.209,296.468l-6.031-16.588v16.032q0,1.537-1.452,1.537H636.8q-1.452,0-1.452-1.537V265.449q0-1.537,1.452-1.537h3.832a1.367,1.367,0,0,1,1.351.982l6.051,16.609V265.449q0-1.537,1.452-1.537h2.9q1.452,0,1.452,1.537v30.443q0,1.516-1.432,1.516l-3.832.021a1.325,1.325,0,0,1-1.372-.961" transform="translate(-511.338 -212.4)" fill="#f6e7c2"/>
  </g>
</svg>
